<svg width="81" height="36" viewBox="0 0 81 36" fill="none" xmlns="http://www.w3.org/2000/svg">
<path fill-rule="evenodd" clip-rule="evenodd" d="M73.2539 26.0108L77.7925 25.0797L74.4188 28.2552L75.3921 32.7719L72.1744 29.42L67.6357 30.3511L71.0095 27.1757L70.1207 22.6151L73.2539 26.0108Z" fill="currentColor"/>
<path d="M9.54386 14.0915L8.86485 12.1998L6.10032 13.2003L5.09 10.457L3.18846 11.1574L4.19878 13.9006L1.44572 14.9322L2.1559 16.8124L4.89911 15.8021L5.93075 18.5552L7.80112 17.8663L6.80065 15.1018L9.54386 14.0915Z" fill="currentColor"/>
<path d="M52 4.00122L48.992 1.00122L45.952 4.00122L43.008 1.00122L39.968 4.00122L37.056 1.00122L34 4.00122" stroke="currentColor" stroke-width="1.1" stroke-miterlimit="10"/>
</svg>
