<svg width="221" height="171" viewBox="0 0 221 171" fill="none" xmlns="http://www.w3.org/2000/svg">
<path d="M1.39544 91.2683C2.89006 102.546 8.88715 112.538 16.4439 121.571C33.4376 141.612 57.1472 154.968 81.0136 162.542C93.1774 166.435 105.181 168.86 117.361 169.694C126.811 170.393 135.887 170.085 144.716 169.107C160.565 167.437 176.59 164.175 191.16 158.018C204.046 152.484 218.632 143.267 220.646 128.019C221.865 119.935 219.432 111.295 215.103 103.739C208.821 91.9438 197.135 85.2031 186.246 78.5487C180.465 75.3462 174.897 71.6833 169.877 67.4355C164.734 62.852 160.813 57.4341 157.566 51.7669C150.362 39.5502 145.729 26.0004 136.292 14.9921C128.984 6.63048 119.017 0.397936 108.22 0.197328C98.2212 0.0829753 89.8735 5.46336 84.7893 13.4519C79.3682 21.5651 77.884 32.0371 75.3534 41.7516C73.637 48.4933 71.4432 58.0831 63.2884 58.8125C61.0192 58.8894 58.9625 58.5059 56.7815 57.7869C50.7159 52.7815 43.2509 50.2024 35.6453 50.3468C25.4338 50.6928 15.703 55.4404 9.35985 63.1317C2.55563 70.6121 -0.187434 80.787 1.39544 91.2683Z" fill="#F2F2F2"/>
</svg>
