<svg width="775" height="386" viewBox="0 0 775 386" fill="none" xmlns="http://www.w3.org/2000/svg">
<path d="M47.9431 7.87805C57.3442 -6.71101 116.518 8.6641 114.16 30.7363C111.802 52.8086 70.8957 157.636 81.0829 169.458C91.2701 181.28 144.093 179.708 144.879 177.35C145.665 174.992 157.487 105.631 159.845 94.5949C162.203 83.5588 218.956 85.9169 222.1 106.417C225.244 126.917 205.562 251.427 203.172 286.108C200.782 320.788 206.316 351.507 199.242 358.613C192.136 365.719 133.025 366.505 128.309 354.683C123.592 342.86 141.263 242.781 135.163 237.247C129.095 231.745 27.4115 242.749 6.91138 223.067C-13.5259 203.353 23.5127 45.7027 47.9431 7.87805Z" fill="#1363DF"/>
<path d="M583.713 7.84637C589.561 -4.63608 658.01 -3.31552 653.42 23.0328C648.829 49.3812 614.117 170.936 621.601 176.752C629.084 182.569 677.378 184.173 682 182.286C686.622 180.4 698.948 91.1361 701.18 76.7671C703.412 62.3981 772.868 61.8322 774 79.1252C775.131 96.4183 748.437 367.479 741.426 379.804C734.414 392.098 669.675 380.528 665.808 369.743C661.94 358.958 684.579 246.082 678.888 243.315C673.197 240.548 565.068 253.911 548.624 232.059C532.18 210.207 572.614 31.4593 583.713 7.84637Z" fill="#1363DF"/>
<path d="M393.931 21.272C456.123 25.0451 522.403 101.669 510.581 209.641C498.759 317.612 434.932 376.723 349.001 372.007C263.07 367.291 237.099 258.501 245.745 173.388C254.392 88.2748 303.284 15.7697 393.931 21.272Z" fill="#1363DF"/>
<path d="M361.074 107.675C388.146 117.139 396.541 184.078 368.18 213.665C339.819 243.221 292.531 218.004 290.141 180.18C287.751 142.355 329.538 96.6384 361.074 107.675Z" fill="white"/>
<path d="M446.972 145.468C449.644 146.442 452.128 148.077 454.298 149.964C465.177 159.428 468.572 175.872 464.265 189.644C462.441 195.46 459.266 201.057 454.392 204.736C448.418 209.232 440.495 210.49 433.074 209.672C427.635 209.075 422.07 207.345 418.328 203.352C415.656 200.523 414.146 196.781 413.172 193.039C408.455 174.803 418.894 141.443 443.293 144.587C444.582 144.745 445.808 145.059 446.972 145.468Z" fill="white"/>
<path d="M428.201 187.002C433.653 187.002 438.074 182.582 438.074 177.13C438.074 171.677 433.653 167.257 428.201 167.257C422.748 167.257 418.328 171.677 418.328 177.13C418.328 182.582 422.748 187.002 428.201 187.002Z" fill="#1A3749"/>
<path d="M354.283 163.107C359.736 163.107 364.156 158.687 364.156 153.234C364.156 147.782 359.736 143.361 354.283 143.361C348.83 143.361 344.41 147.782 344.41 153.234C344.41 158.687 348.83 163.107 354.283 163.107Z" fill="#1A3749"/>
<path d="M391.696 277.304C390.847 277.304 389.967 277.021 389.243 276.486C387.451 275.134 387.074 272.556 388.426 270.764C389.181 269.758 407.197 246.176 426.156 247.811C428.42 248 430.055 249.981 429.866 252.245C429.678 254.508 427.697 256.143 425.433 255.955C413.454 254.917 399.336 269.852 394.934 275.7C394.148 276.738 392.922 277.304 391.696 277.304Z" fill="#0E4FAD"/>
<path d="M435.119 135.941C425.56 135.941 417.669 133.426 417.071 133.237C414.933 132.545 413.77 130.218 414.461 128.08C415.153 125.942 417.48 124.779 419.618 125.471C419.869 125.534 443.608 133.08 455.273 120.44C456.814 118.774 459.392 118.679 461.058 120.22C462.725 121.761 462.819 124.339 461.279 126.005C453.984 133.834 443.86 135.941 435.119 135.941Z" fill="#0E4FAD"/>
<path d="M382.012 100.789C380.44 100.789 378.931 99.8772 378.271 98.3366C378.176 98.1165 368.712 76.8932 353.18 73.4345C345.665 71.7681 337.616 74.5979 329.284 81.9239C327.586 83.4016 325.008 83.2444 323.53 81.5466C322.052 79.8487 322.21 77.2705 323.907 75.7927C334.315 66.6745 344.785 63.2159 355.004 65.5112C374.592 69.913 385.345 94.0919 385.785 95.098C386.697 97.1732 385.754 99.5628 383.679 100.475C383.113 100.663 382.547 100.789 382.012 100.789Z" fill="#0E4FAD"/>
</svg>
